<?xml version="1.0" encoding="UTF-8"?>
<svg version="1.1" xmlns="http://www.w3.org/2000/svg" width="1254" height="1254">
<path d="M0 0 C413.82 0 827.64 0 1254 0 C1254 413.82 1254 827.64 1254 1254 C840.18 1254 426.36 1254 0 1254 C0 840.18 0 426.36 0 0 Z " fill="#FCFBF9" transform="translate(0,0)"/>
<path d="M0 0 C7.97077622 1.41779534 13.05089366 10.45729671 17.8046875 16.36328125 C20.13435017 19.16136364 22.59712616 21.69976519 25.21923828 24.21948242 C26.98168736 25.98168987 28.60998935 27.80567173 30.234375 29.6953125 C33.93513303 33.95269654 37.75415808 38.08475113 41.625 42.1875 C42.66333984 43.28843994 42.66333984 43.28843994 43.72265625 44.41162109 C51.92129522 53.07096341 60.1446166 61.73371201 69.2421875 69.4609375 C71.07927024 71.0694055 72.78907787 72.75838868 74.5 74.5 C78.16296626 78.21213359 82.04234601 81.60680882 86 85 C87.0433138 85.90715539 88.08625379 86.81474081 89.12890625 87.72265625 C96.66112456 94.25851534 104.3584027 100.52545854 112.24121094 106.63232422 C114.6213338 108.48316379 116.98541707 110.35399235 119.35058594 112.22387695 C126.15141316 117.5939853 133.01817648 122.86642365 140 128 C140.63325195 128.46599609 141.26650391 128.93199219 141.91894531 129.41210938 C157.86468806 141.11221298 174.22117065 152.21647186 190.703125 163.14453125 C193.69182178 165.12687547 196.67334087 167.11972047 199.65208435 169.11698914 C215.87102705 180.02503054 215.87102705 180.02503054 232.3729248 190.49667358 C236.55300267 193.0736259 240.6658548 195.73822648 244.7421875 198.4765625 C246.0630299 199.36053259 247.38399985 200.24431213 248.70507812 201.12792969 C249.40076904 201.59356323 250.09645996 202.05919678 250.81323242 202.53894043 C253.86224324 204.57609631 256.91730411 206.60408455 259.97253418 208.63189697 C263.26974718 210.82055421 266.56504507 213.01208695 269.86035156 215.20361328 C271.53264978 216.31512334 273.20549902 217.42580483 274.87890625 218.53564453 C346.57730122 266.09614088 346.57730122 266.09614088 367 295 C367.40444336 295.57218262 367.80888672 296.14436523 368.22558594 296.73388672 C379.32143472 312.68473179 385.20348594 330.05489547 391.16722107 348.38027954 C398.83718217 371.94727812 407.40634309 395.05035325 419 417 C419.49886719 417.96550781 419.99773437 418.93101562 420.51171875 419.92578125 C428.69639154 435.42060016 438.7845023 449.73167885 450.734375 462.54296875 C452.55884924 464.52157961 454.25819999 466.52587498 455.9375 468.625 C460.01573502 473.42091325 465.07146629 477.12576603 470 481 C470.9796875 481.80695313 471.959375 482.61390625 472.96875 483.4453125 C488.62891926 496.06044885 507.25628487 505.87768585 527 510 C525.97261719 509.49210937 524.94523438 508.98421875 523.88671875 508.4609375 C515.83294081 504.46520435 507.84868009 500.38993971 500 496 C503.79998852 494.73333716 505.78919013 495.43838376 509.6875 496.3125 C527.86294142 500.10895393 545.44905414 500.47186819 564 500 C565.48282471 499.96229492 565.48282471 499.96229492 566.99560547 499.92382812 C618.76519017 498.10180647 675.47048426 478.43556662 717.375 448.4375 C727.59851428 441.31844311 738.69373978 435.42776562 751 433 C752.093125 432.773125 753.18625 432.54625 754.3125 432.3125 C771.22134863 430.87954673 783.1391934 434.08093959 798 442 C808.99225458 447.9334453 808.99225458 447.9334453 821 451 C822.12664063 451.15855469 823.25328125 451.31710937 824.4140625 451.48046875 C831.13088915 452.36926266 837.83848496 453.00977682 844.6015625 453.4296875 C845.75084229 453.50445313 846.90012207 453.57921875 848.08422852 453.65625 C850.35983609 453.79936395 852.63644227 453.92757443 854.91381836 454.0390625 C861.60852618 454.46202528 866.22606447 455.54263739 872 459 C872 460.32 872 461.64 872 463 C871.39454346 463.03440186 870.78908691 463.06880371 870.1652832 463.10424805 C857.22474526 463.88365294 844.47228969 465.19905944 831.6875 467.375 C829.91209839 467.6702356 829.91209839 467.6702356 828.10083008 467.97143555 C816.4053229 470.04611252 805.84376048 473.76922561 795.21875 479 C783.25472813 484.58903211 770.33998103 486.47914301 757.32223511 487.72427368 C687.17006094 494.53205214 620.95637009 521.83863118 566 566 C565.175 566.66257812 564.35 567.32515625 563.5 568.0078125 C553.19501794 576.36563225 543.12662688 584.93066479 533.5 594.0625 C504.71388785 621.22670253 468.20729547 640.16597303 431 653 C429.70497559 653.45149414 429.70497559 653.45149414 428.38378906 653.91210938 C399.83787065 663.75263546 369.61699814 669.85592306 339.5 672.0625 C315.89917956 673.83565543 294.20676994 684.05251423 273 694 C272.03046387 694.45391113 271.06092773 694.90782227 270.06201172 695.37548828 C252.05501172 703.83840547 234.3438133 712.81115492 216.93774414 722.45092773 C207.71072612 727.55432611 198.37324861 732.35980305 188.875 736.9375 C187.22226074 737.73498657 187.22226074 737.73498657 185.53613281 738.54858398 C179.42134189 741.465075 173.25799087 744.17965374 166.99121094 746.75170898 C161.83606627 748.90305201 156.76389677 751.23272147 151.6875 753.5625 C150.65560547 754.03107422 149.62371094 754.49964844 148.56054688 754.98242188 C142.36209576 757.81322238 142.36209576 757.81322238 136.39453125 761.08984375 C133.64191663 762.63878339 131.11392117 763.79685185 128.1875 764.9296875 C122.91753267 766.97537136 117.98666938 769.47179815 113 772.125 C112.04375732 772.62781494 111.08751465 773.13062988 110.10229492 773.64868164 C104.59357579 776.55016153 99.0997279 779.47915876 93.6086731 782.41387939 C90.59337238 784.02453692 87.57609782 785.63148073 84.55883789 787.23846436 C82.36298279 788.41055362 80.17068888 789.58910919 77.97851562 790.76806641 C54.6531312 803.24810061 54.6531312 803.24810061 42 803 C43.41206677 798.57340865 45.56114445 796.09052155 48.875 792.875 C49.73867188 792.02679687 50.60234375 791.17859375 51.4921875 790.3046875 C57.26440678 785 57.26440678 785 60 785 C60 784.34 60 783.68 60 783 C59.11248047 783.32484375 59.11248047 783.32484375 58.20703125 783.65625 C50.35852373 786.42179262 50.35852373 786.42179262 46 786 C45 783 45 783 45.79296875 781.2734375 C56.17760665 767.13636742 73.71752177 759.43704788 89.54077148 752.95996094 C105.97044897 746.45395991 105.97044897 746.45395991 120 736 C121.13803302 734.93472422 122.27891773 733.87249071 123.421875 732.8125 C125.34921891 731.02143293 127.27363251 729.22774224 129.18896484 727.42382812 C153.13762248 704.87683772 179.97232263 685.62734908 211 674 C203.75988625 673.68019129 197.03467191 674.88726031 189.9375 676.25 C188.73246826 676.47888916 187.52743652 676.70777832 186.28588867 676.94360352 C160.77645452 681.88041413 137.52311834 691.09349398 115 704 C116.36647437 699.27815139 118.39032845 695.34113965 121.0625 691.25 C121.46170654 690.63656738 121.86091309 690.02313477 122.2722168 689.39111328 C126.01955892 683.76237438 130.28454226 678.84496142 135 674 C136.30517578 672.58460938 136.30517578 672.58460938 137.63671875 671.140625 C160.87013281 646.38013208 192.76696176 634.65087616 224.17318726 624.07913208 C237.66979017 619.53355938 250.99424945 614.83225801 264 609 C264.85819336 608.61956543 265.71638672 608.23913086 266.60058594 607.84716797 C290.11494865 597.33572377 311.39702122 583.37016265 332.08984375 568.12109375 C338.66496796 563.3287549 345.34463242 558.67997664 352 554 C329.48991072 564.47499204 307.0448544 575.263305 286.1953125 588.82421875 C285.47085937 589.21222656 284.74640625 589.60023438 284 590 C283.34 589.67 282.68 589.34 282 589 C282.62648438 588.19175781 283.25296875 587.38351562 283.8984375 586.55078125 C284.72425829 585.47158363 285.54976242 584.39214365 286.375 583.3125 C286.7875 582.78205078 287.2 582.25160156 287.625 581.70507812 C291.37474153 576.7759824 293.91540715 571.96654005 293.75 565.69140625 C292.14193884 559.92081178 287.45605712 555.43699196 283.63378906 550.95507812 C280.86680337 547.64395717 278.28727025 544.19283181 275.6875 540.75 C271.76378261 535.59354829 267.80843011 530.46419216 263.8137207 525.36254883 C256.61120018 516.15983022 249.63607504 506.80830877 242.74121094 497.37353516 C241.02729935 495.03721317 239.30117753 492.71050132 237.5703125 490.38671875 C219.37514761 465.930018 202.33328557 440.65406821 186.02709961 414.90429688 C182.21065967 408.88418305 178.36084069 402.8885935 174.4375 396.9375 C173.96086914 396.20547363 173.48423828 395.47344727 172.99316406 394.71923828 C168.00432202 387.20401823 162.51403954 382.88022717 154.75 378.4375 C147.85515939 374.39095537 141.11458699 370.20841544 134.5625 365.625 C133.52657715 364.91234985 133.52657715 364.91234985 132.46972656 364.18530273 C128.26421306 361.19830178 125.13743352 358.09861258 122 354 C125.20866368 354.30916577 128.41686171 354.62293289 131.625 354.9375 C132.52863281 355.02451172 133.43226563 355.11152344 134.36328125 355.20117188 C137.97041528 355.55661939 141.52599523 355.91381732 145.09375 356.5625 C149.03461888 357.15574908 152.89688205 357.10632672 156.875 357.0625 C158.050625 357.05573242 158.050625 357.05573242 159.25 357.04882812 C161.16670014 357.03714093 163.08336048 357.01920908 165 357 C164.44127197 356.80889648 163.88254395 356.61779297 163.30688477 356.42089844 C160.72396799 355.53477857 158.14324502 354.64242418 155.5625 353.75 C154.68400391 353.44964844 153.80550781 353.14929688 152.90039062 352.83984375 C147.82468339 351.07926633 142.91284838 349.13620665 138.02563477 346.90625 C135.29184086 345.68317624 132.4994804 344.65350645 129.6875 343.625 C124.30675298 341.58683825 119.22939677 339.21495203 114.14453125 336.52734375 C111.52666327 335.25580787 108.94822038 334.18091201 106.23828125 333.1328125 C101.06601974 331.09256495 96.23212409 328.63493337 91.375 325.9375 C90.51181152 325.45925781 89.64862305 324.98101562 88.75927734 324.48828125 C80.47068963 319.82089152 72.66025321 314.6303877 65 309 C64.41057617 308.57283691 63.82115234 308.14567383 63.21386719 307.70556641 C47.92529856 296.54363371 34.15456304 283.04937294 24 267 C24 266.34 24 265.68 24 265 C27.95219162 266.43286629 31.54441726 268.32334428 35.22705078 270.32446289 C67.13832187 287.6316652 102.23976942 297.56991386 137.06445312 307.18896484 C139.90318241 307.97325116 142.74085333 308.76123983 145.578125 309.55078125 C149.71811717 310.70281331 153.85880166 311.85231157 158 313 C155.2050143 311.5446346 152.41259254 310.36143317 149.44921875 309.29296875 C39.62011511 269.17918687 39.62011511 269.17918687 10 226 C10.33 225.34 10.66 224.68 11 224 C11.83132446 224.39771606 11.83132446 224.39771606 12.67944336 224.8034668 C40.66735695 238.10715144 69.56552738 248.76548898 98.83674622 258.86231995 C104.55757768 260.83774046 110.25594075 262.87093309 115.94799805 264.92797852 C121.2471233 266.78930633 126.61900168 268.39424177 132 270 C133.63680803 270.4918905 135.27351989 270.98410109 136.91015625 271.4765625 C141.10892382 272.7389904 145.30882468 273.99758633 149.50927734 275.25439453 C153.67344503 276.5009509 157.83670986 277.75051647 162 279 C161.04975952 278.64156006 161.04975952 278.64156006 160.08032227 278.27587891 C5.76296358 219.68953427 5.76296358 219.68953427 -21 165 C-21 164.01 -21 163.02 -21 162 C-15.80172762 162.57295587 -11.69861622 165.10275548 -7.1875 167.5625 C-5.46810356 168.48299655 -3.74804174 169.40225125 -2.02734375 170.3203125 C-1.17382324 170.77696289 -0.32030273 171.23361328 0.55908203 171.70410156 C34.26918792 189.60100515 69.51084609 205.4113731 104.5625 220.5 C105.41150879 220.86722168 106.26051758 221.23444336 107.13525391 221.61279297 C110.93241096 223.3682634 110.93241096 223.3682634 115 224 C114.3618335 223.6611377 113.72366699 223.32227539 113.06616211 222.97314453 C105.40749154 218.85678913 97.97444374 214.4169068 90.5625 209.875 C88.05799603 208.34389717 85.55260333 206.81425438 83.046875 205.28515625 C82.43262161 204.91003403 81.81836823 204.5349118 81.1855011 204.14842224 C77.77128492 202.06694065 74.34355745 200.01264563 70.890625 197.99609375 C60.03870946 191.64978365 49.53134026 184.82919833 39.0625 177.875 C38.36162262 177.41122955 37.66074524 176.94745911 36.93862915 176.46963501 C24.75761894 168.3963223 13.0150467 159.99843797 2.25390625 150.06640625 C0.2536994 148.23259442 -1.79343238 146.48962633 -3.875 144.75 C-17.94853586 132.34381076 -32.438569 115.24587707 -38 97 C-37.63671875 94.6484375 -37.63671875 94.6484375 -37 93 C-34.23788903 94.30614691 -31.82340572 95.75777364 -29.375 97.58203125 C-28.67938965 98.09491699 -27.9837793 98.60780273 -27.26708984 99.13623047 C-26.5189502 99.68939941 -25.77081055 100.24256836 -25 100.8125 C-15.24229212 107.93406092 -5.19792514 114.52974673 5 121 C5.89364258 121.56912109 6.78728516 122.13824219 7.70800781 122.72460938 C25.24222599 133.86981613 43.09109436 144.47205191 61 155 C61.92655396 155.54479004 61.92655396 155.54479004 62.87182617 156.10058594 C66.82839768 158.42605516 70.78806584 160.74617476 74.75 163.0625 C75.73742187 163.64008057 76.72484375 164.21766113 77.7421875 164.81274414 C78.64710938 165.33989014 79.55203125 165.86703613 80.484375 166.41015625 C81.26522461 166.86527588 82.04607422 167.32039551 82.85058594 167.78930664 C84.87190549 168.92784863 86.91537507 169.98287132 89 171 C87.99582031 170.24976563 86.99164063 169.49953125 85.95703125 168.7265625 C72.36740867 158.56276874 58.95470344 148.24081629 45.82470703 137.48828125 C44.22229928 136.18131341 42.60996982 134.88652979 40.99609375 133.59375 C34.74201408 128.56863795 28.84313201 123.2430253 22.98828125 117.765625 C20.71523443 115.64477533 18.38828851 113.61607842 16 111.625 C6.45466608 103.33350231 -2.02991677 93.52200197 -9 83 C-10.01513672 81.47632813 -10.01513672 81.47632813 -11.05078125 79.921875 C-20.15848957 65.72002474 -27.29440931 50.07573987 -27 33 C-23.451907 33.57343408 -21.90607194 34.77140522 -19.49609375 37.39453125 C-18.84358643 38.09682861 -18.1910791 38.79912598 -17.51879883 39.52270508 C-16.48855591 40.65615356 -16.48855591 40.65615356 -15.4375 41.8125 C-14.72295654 42.58424561 -14.00841309 43.35599121 -13.2722168 44.15112305 C-10.14351786 47.53670538 -7.04219907 50.94622773 -3.9609375 54.375 C2.18472342 61.19142627 8.6249717 67.46144947 15.44189453 73.59033203 C16.89989726 74.90943384 18.33936392 76.24894273 19.77734375 77.58984375 C26.31104008 83.66301523 33.16730969 89.18036187 40.22363281 94.62207031 C41.93793308 95.95185463 43.63914258 97.29641367 45.3359375 98.6484375 C59.76624254 110.13516332 74.72938512 120.89984765 89.83251953 131.47949219 C93.74908815 134.22700169 97.65500975 136.98960272 101.5625 139.75 C103.00125898 140.76568607 104.44005687 141.78131701 105.87890625 142.796875 C106.90886719 143.52390625 107.93882812 144.2509375 109 145 C105.4642292 141.41889881 101.83601513 137.96201703 98.125 134.5625 C96.95427628 133.48323648 95.7837091 132.40380313 94.61328125 131.32421875 C92.32487296 129.21613532 90.0299269 127.11554652 87.73046875 125.01953125 C79.10236231 117.10729938 70.78525982 108.89280015 62.5 100.625 C61.93342682 100.06101501 61.36685364 99.49703003 60.78311157 98.91595459 C54.63768303 92.79268518 48.59194961 86.64102874 43 80 C42.08777969 78.94354381 41.17504372 77.88753259 40.26171875 76.83203125 C-1.63816246 27.68391566 -1.63816246 27.68391566 -0.17578125 1.6953125 C-0.08876953 0.85613281 -0.08876953 0.85613281 0 0 Z " fill="#102033" transform="translate(228,176)"/>
<path d="M0 0 C3.61767108 -0.00964519 7.23475773 -0.0407381 10.85229492 -0.07226562 C27.20730833 -0.14638977 43.14925006 1.02161752 59.3503418 3.24023438 C60.09087799 3.34029785 60.83141418 3.44036133 61.59439087 3.54345703 C65.36383688 4.06430819 69.10792658 4.67775719 72.8503418 5.36523438 C73.97158447 5.56987305 75.09282715 5.77451172 76.24804688 5.98535156 C100.52155822 10.6132788 124.39141746 17.07453441 147.3503418 26.24023438 C148.39947754 26.65499023 149.44861328 27.06974609 150.52954102 27.49707031 C204.89433012 49.17773189 257.16105989 84.11882692 295.40112305 128.95507812 C296.90082188 130.71324208 298.42353195 132.45179688 299.95581055 134.18164062 C322.30804546 159.54261245 340.37493656 188.53749651 355.1628418 218.86523438 C355.69723877 219.9508667 356.23163574 221.03649902 356.78222656 222.1550293 C357.2648999 223.1654126 357.74757324 224.1757959 358.24487305 225.21679688 C358.8922644 226.56378662 358.8922644 226.56378662 359.55273438 227.93798828 C360.3503418 230.24023437 360.3503418 230.24023437 359.3503418 233.24023438 C359.07061523 232.6744165 358.79088867 232.10859863 358.50268555 231.52563477 C348.05266768 210.55629626 336.14083542 190.45719235 321.3503418 172.24023438 C320.48271869 171.12410112 319.61825741 170.00550452 318.7565918 168.88476562 C304.01629109 149.74696861 287.78053413 130.89793028 268.64331055 116.03320312 C266.31942734 114.21606106 264.15255356 112.29232286 261.9753418 110.30273438 C246.01844035 96.00918485 227.80176675 84.02976356 209.3503418 73.24023438 C208.64361328 72.82563965 207.93688477 72.41104492 207.20874023 71.98388672 C193.98025147 64.28303827 180.21700821 57.70304198 166.3503418 51.24023438 C165.37129883 50.78100586 164.39225586 50.32177734 163.38354492 49.84863281 C158.55992049 47.61389451 153.84779796 45.58446599 148.7253418 44.11523438 C147.62577148 43.79167969 146.52620117 43.468125 145.39331055 43.13476562 C144.38913086 42.83957031 143.38495117 42.544375 142.3503418 42.24023438 C140.90988429 41.77003322 139.47203001 41.29172426 138.0378418 40.80273438 C136.47590761 40.28020666 134.91332427 39.75961804 133.3503418 39.24023438 C132.23788086 38.87027344 131.12541992 38.5003125 129.97924805 38.11914062 C111.65102196 32.1393494 93.0689647 28.47629001 74.01977539 25.64257812 C71.799442 25.30792389 69.58422226 24.95568921 67.36987305 24.58398438 C52.15578917 22.06374636 36.92335632 22.02535162 21.54125977 22 C18.01773962 21.99035049 14.49481821 21.95926794 10.97143555 21.92773438 C-56.4656074 21.61390481 -129.93533178 43.1350992 -185.6496582 81.24023438 C-187.83702353 82.67793929 -190.02451963 84.11544527 -192.2121582 85.55273438 C-195.05865825 87.43592511 -197.64663208 89.23748888 -200.17700195 91.53320312 C-202.6496582 93.24023438 -202.6496582 93.24023438 -205.14575195 93.21289062 C-208.08883366 92.06963424 -210.21028949 90.60602233 -212.7121582 88.67773438 C-215.76019618 86.36471373 -218.79393003 84.10863479 -222.0324707 82.07226562 C-223.66829102 81.04166016 -223.66829102 81.04166016 -225.3371582 79.99023438 C-226.35165039 79.36632812 -227.36614258 78.74242187 -228.41137695 78.09960938 C-229.15000977 77.48601562 -229.88864258 76.87242187 -230.6496582 76.24023438 C-230.6496582 74.92023438 -230.6496582 73.60023438 -230.6496582 72.24023438 C-229.05981445 70.70507812 -229.05981445 70.70507812 -226.7121582 69.17773438 C-225.79563477 68.57445312 -224.87911133 67.97117187 -223.93481445 67.34960938 C-222.30866211 66.30546875 -222.30866211 66.30546875 -220.6496582 65.24023438 C-219.37639945 64.39296174 -218.10432803 63.54390295 -216.83325195 62.69335938 C-173.89536609 34.1635083 -124.72481359 15.78287031 -74.09204102 6.68554688 C-71.83384271 6.2738162 -69.5812475 5.84120089 -67.3293457 5.39648438 C-44.94364975 0.99114785 -22.76929271 0.03649656 0 0 Z " fill="#132336" transform="translate(643.649658203125,233.759765625)"/>
<path d="M0 0 C3.81271791 3.17726492 7.45516471 6.399999 10.9375 9.9375 C13.58792802 12.62381389 16.28646555 15.20040315 19.125 17.6875 C19.77597656 18.25984375 20.42695313 18.8321875 21.09765625 19.421875 C22.94853949 21.00957163 22.94853949 21.00957163 24.87109375 22.265625 C26.5625 23.4375 26.5625 23.4375 29 26 C28.82023784 28.76955597 28.50226224 31.28535781 28 34 C27.86182861 34.75788818 27.72365723 35.51577637 27.58129883 36.29663086 C27.11156978 38.78437931 26.61908442 41.26698086 26.125 43.75 C18.17024381 84.93522543 15.34432085 127.66405241 24 169 C24.20641113 170.02319336 24.41282227 171.04638672 24.62548828 172.10058594 C27.75625506 187.61060367 31.30888588 202.88495945 36 218 C36.53947266 219.74990234 36.53947266 219.74990234 37.08984375 221.53515625 C46.78018756 251.69586489 61.91978178 281.40310953 79.07421875 307.953125 C80.54562015 310.28110287 81.80103928 312.5335285 83 315 C82.57702637 315.4125 82.15405273 315.825 81.71826172 316.25 C79.76500439 318.16113139 77.82001465 320.08048179 75.875 322 C75.20984375 322.64839844 74.5446875 323.29679687 73.859375 323.96484375 C69.43304633 328.34777704 65.58962538 332.90919701 62 338 C58.408284 336.80276133 57.96021464 335.86409259 55.92578125 332.765625 C55.05409302 331.44921021 55.05409302 331.44921021 54.16479492 330.10620117 C53.5535376 329.16365479 52.94228027 328.2211084 52.3125 327.25 C51.68255127 326.29005127 51.05260254 325.33010254 50.40356445 324.34106445 C42.44124122 312.16224757 34.99866423 299.75510271 28 287 C27.61666504 286.30326172 27.23333008 285.60652344 26.83837891 284.88867188 C21.96302884 275.98568066 17.52451122 267.00211383 13.5625 257.65625 C12.18941003 254.44321947 10.74094316 251.28437955 9.25 248.125 C7.35322409 243.98545648 5.96058746 239.86858465 4.734375 235.48828125 C3.99903192 232.99671985 3.11909612 230.61194073 2.1875 228.1875 C-2.54641118 215.33311042 -6.10130465 202.04796643 -8.359375 188.54296875 C-8.96436646 184.95029359 -8.96436646 184.95029359 -9.95947266 181.27539062 C-10.97943994 177.23453491 -11.69751481 173.17459945 -12.2890625 169.05078125 C-12.39753006 168.29693649 -12.50599762 167.54309174 -12.61775208 166.7664032 C-19.98493698 114.20163397 -20.80815789 51.12987649 -1 1 C-0.67 0.67 -0.34 0.34 0 0 Z " fill="#122235" transform="translate(280,504)"/>
<path d="M0 0 C1.39018439 3.72961603 0.58462446 5.79780159 -0.9140625 9.40234375 C-1.55698242 10.97508057 -1.55698242 10.97508057 -2.21289062 12.57958984 C-2.67888672 13.6877002 -3.14488281 14.79581055 -3.625 15.9375 C-4.56596545 18.21969716 -5.50608016 20.50224529 -6.4453125 22.78515625 C-7.12062012 24.41541748 -7.12062012 24.41541748 -7.80957031 26.07861328 C-9.12976184 29.31844343 -10.32598668 32.5800502 -11.5 35.875 C-14.83915288 44.63439752 -19.51068693 52.79101935 -24 61 C-24.3820459 61.70592285 -24.7640918 62.4118457 -25.15771484 63.13916016 C-35.1799209 81.62771454 -46.78062745 99.35201371 -60.0859375 115.65234375 C-61.35884304 117.21360136 -62.61429748 118.78925562 -63.8515625 120.37890625 C-68.66234079 126.54580928 -73.85498173 132.26494349 -79.19140625 137.97265625 C-81.35357164 140.28880374 -83.44716566 142.64828651 -85.5 145.0625 C-92.67145837 153.33860843 -100.6572406 160.92263268 -109 168 C-109.96808594 168.85722656 -110.93617188 169.71445312 -111.93359375 170.59765625 C-141.00396046 196.22031285 -175.14955647 217.31586999 -211 232 C-211.68151123 232.28705811 -212.36302246 232.57411621 -213.06518555 232.86987305 C-299.89876089 268.72130043 -395.77770361 269.62933961 -503.68359375 230.27734375 C-533.22333617 217.78723645 -561.68263688 201.75632382 -587 182 C-582.90497359 177.36709339 -576.95118886 175.01935724 -571.5625 172.1875 C-570.41716797 171.56423828 -569.27183594 170.94097656 -568.09179688 170.29882812 C-566.43954102 169.42967773 -566.43954102 169.42967773 -564.75390625 168.54296875 C-563.74658447 168.00696045 -562.7392627 167.47095215 -561.70141602 166.91870117 C-559 166 -559 166 -556.92871094 166.65234375 C-556.29223633 167.09707031 -555.65576172 167.54179688 -555 168 C-554.27385498 168.46124268 -553.54770996 168.92248535 -552.79956055 169.39770508 C-552.00332275 169.93290771 -551.20708496 170.46811035 -550.38671875 171.01953125 C-500.93893735 203.95248336 -447.14355341 227.1924683 -388.125 235.875 C-387.42496857 235.97863861 -386.72493713 236.08227722 -386.00369263 236.1890564 C-369.46131906 238.6019381 -353.06633361 239.2108702 -336.375 239.1875 C-334.97388474 239.18559662 -334.97388474 239.18559662 -333.54446411 239.18365479 C-320.26504936 239.149254 -307.14365442 239.07891308 -294 237 C-292.2351123 236.72542969 -292.2351123 236.72542969 -290.43457031 236.4453125 C-264.55520201 232.34567096 -238.33596416 226.90511416 -214 217 C-212.94441895 216.57122559 -211.88883789 216.14245117 -210.80126953 215.70068359 C-179.37275206 202.78879028 -149.86414558 186.91620861 -123 166 C-121.79582773 165.07388733 -120.59140525 164.1480999 -119.38671875 163.22265625 C-115.89072155 160.52316028 -112.43550442 157.77597485 -109 155 C-108.45730469 154.56316895 -107.91460938 154.12633789 -107.35546875 153.67626953 C-93.1051399 142.10850557 -79.26650032 129.07569961 -67.99609375 114.5625 C-66.04126424 112.05297327 -64.00644722 109.64112591 -61.93310547 107.22998047 C-53.63018065 97.56916676 -46.05793738 87.460997 -39.14257812 76.75683594 C-37.89643008 74.84075019 -36.62723089 72.94084634 -35.359375 71.0390625 C-20.68821432 48.73979834 -9.51177953 24.87626744 0 0 Z " fill="#132437" transform="translate(1015,755)"/>
<path d="M0 0 C1.39018439 3.72961603 0.58462446 5.79780159 -0.9140625 9.40234375 C-1.55698242 10.97508057 -1.55698242 10.97508057 -2.21289062 12.57958984 C-2.67888672 13.6877002 -3.14488281 14.79581055 -3.625 15.9375 C-4.56596545 18.21969716 -5.50608016 20.50224529 -6.4453125 22.78515625 C-6.89551758 23.87199707 -7.34572266 24.95883789 -7.80957031 26.07861328 C-9.12976184 29.31844343 -10.32598668 32.5800502 -11.5 35.875 C-14.83866716 44.63312335 -19.505825 52.79488141 -24 61 C-24.38736328 61.71124023 -24.77472656 62.42248047 -25.17382812 63.15527344 C-30.74015024 73.34406305 -36.76351673 83.20911185 -43 93 C-44.125 89.25 -44.125 89.25 -43 87 C-43.33 86.01 -43.66 85.02 -44 84 C-42.62299141 81.63421432 -41.20722077 79.47234726 -39.625 77.25 C-38.68244651 75.87667783 -37.74239554 74.5016352 -36.8046875 73.125 C-36.32870117 72.42890625 -35.85271484 71.7328125 -35.36230469 71.015625 C-20.48512195 49.00379334 -9.49551525 24.71600793 0 0 Z " fill="#1D2C3E" transform="translate(1015,755)"/>
<path d="M0 0 C5.17674964 1.82113703 10.26547533 3.77523993 15.31532288 5.92292786 C16.06369919 6.23739365 16.8120755 6.55185944 17.58312988 6.87585449 C19.95222572 7.87148734 22.31952626 8.87128318 24.68641663 9.87214661 C36.07981895 14.68891778 47.50458439 19.31318403 59.12391663 23.55964661 C55.73099997 24.69061883 55.08032924 24.44684824 51.83485413 23.30183411 C50.98495911 23.00865295 50.13506409 22.7154718 49.25941467 22.41340637 C47.89296814 21.92892029 47.89296814 21.92892029 46.49891663 21.43464661 C44.57657956 20.77204826 42.65339039 20.11191722 40.72938538 19.45417786 C39.77467346 19.12756165 38.81996155 18.80094543 37.83631897 18.46443176 C34.18864084 17.24766352 30.51056044 16.16971197 26.81141663 15.12214661 C15.79614015 11.97938148 4.97052145 8.23453494 -5.87608337 4.55964661 C-3.45106688 -0.81003277 -3.45106688 -0.81003277 0 0 Z " fill="#E7E8EA" transform="translate(338.87608337402344,433.4403533935547)"/>
<path d="M0 0 C3.5546721 0.5681409 6.19888311 1.46405173 9.29296875 3.29296875 C10.08405029 3.75598389 10.87513184 4.21899902 11.69018555 4.69604492 C12.51429932 5.1882251 13.33841309 5.68040527 14.1875 6.1875 C15.03159424 6.68419189 15.87568848 7.18088379 16.74536133 7.69262695 C19.16816997 9.12084081 21.58504877 10.55854987 24 12 C24.61359375 12.36480469 25.2271875 12.72960937 25.859375 13.10546875 C28.58094649 14.72387898 31.29591891 16.35252643 34 18 C29.75926267 19.41357911 27.13221842 17.58414365 23.26953125 15.81640625 C22.51911057 15.48205063 21.76868988 15.14769501 20.99552917 14.8032074 C18.59701195 13.73202025 16.20480916 12.64747085 13.8125 11.5625 C12.18854861 10.83439907 10.56420409 10.10717431 8.93945312 9.38085938 C4.95500049 7.59737858 0.97615942 5.8018897 -3 4 C-2.34 3.67 -1.68 3.34 -1 3 C-0.67 2.01 -0.34 1.02 0 0 Z " fill="#E7E9EB" transform="translate(310,382)"/>
<path d="M0 0 C3.4421824 4.03025456 6.01871256 8.2551951 8.5625 12.875 C9.1963562 14.02367554 9.1963562 14.02367554 9.84301758 15.19555664 C13.46684411 21.85611671 16.86987728 28.61987918 20.1875 35.4375 C20.6812915 36.4382959 21.17508301 37.4390918 21.68383789 38.47021484 C22.13235107 39.40687988 22.58086426 40.34354492 23.04296875 41.30859375 C23.44539795 42.14189209 23.84782715 42.97519043 24.26245117 43.83374023 C25 46 25 46 24 49 C23.69408936 48.3922876 23.38817871 47.7845752 23.07299805 47.15844727 C14.59941741 30.40217562 14.59941741 30.40217562 4.39135742 14.67016602 C1.05653505 9.87904045 0.16948993 5.81609302 0 0 Z " fill="#1F2C40" transform="translate(979,418)"/>
<path d="M0 0 C6.43079027 2.50269233 12.86774602 4.88518207 19.4375 7 C19.4375 7.33 19.4375 7.66 19.4375 8 C13.28849874 7.4476218 7.66354776 6.43105377 1.75 4.6875 C0.18365997 4.23414614 -1.38274718 3.78102414 -2.94921875 3.328125 C-4.10623291 2.99071289 -4.10623291 2.99071289 -5.28662109 2.64648438 C-7.43993619 2.03481538 -9.59910308 1.46925874 -11.76953125 0.921875 C-13.02121094 0.59703125 -14.27289063 0.2721875 -15.5625 -0.0625 C-16.67625 -0.34222656 -17.79 -0.62195313 -18.9375 -0.91015625 C-21.5625 -2 -21.5625 -2 -22.9375 -4.12109375 C-23.14375 -4.74113281 -23.35 -5.36117188 -23.5625 -6 C-16.4412177 -8.37376077 -6.73608496 -2.63306186 0 0 Z " fill="#E6E8EA" transform="translate(371.5625,482)"/>
<path d="M0 0 C3.03027161 3.73223819 5.94608227 7.53302172 8.75 11.4375 C9.16121094 11.98470703 9.57242188 12.53191406 9.99609375 13.09570312 C12.6826402 16.8666861 13.47233032 19.39477936 13 24 C13.66 24.33 14.32 24.66 15 25 C14.34 25.66 13.68 26.32 13 27 C12.34773437 26.0821875 11.69546875 25.164375 11.0234375 24.21875 C10.60231689 23.62747314 10.18119629 23.03619629 9.74731445 22.42700195 C8.83068061 21.13986605 7.91515683 19.85193891 7.00073242 18.56323242 C4.07612293 14.45607929 1.06762645 10.44609038 -2.13671875 6.55078125 C-2.42160156 6.03902344 -2.70648437 5.52726562 -3 5 C-2.67 4.01 -2.34 3.02 -2 2 C-1.34 2 -0.68 2 0 2 C0 1.34 0 0.68 0 0 Z " fill="#19273D" transform="translate(966,398)"/>
<path d="M0 0 C5.82181078 1.43714511 9.66115989 4.52432998 14.25 8.1875 C15.7527015 9.3635202 17.25660348 10.53800811 18.76171875 11.7109375 C19.48536621 12.27651367 20.20901367 12.84208984 20.95458984 13.42480469 C24.86367509 16.43523892 28.91220786 19.23797829 33 22 C32.01 22.495 32.01 22.495 31 23 C28.46557617 21.80004883 28.46557617 21.80004883 25.29296875 19.95703125 C24.73055984 19.63216232 24.16815094 19.3072934 23.58869934 18.97257996 C22.39537171 18.28103074 21.20432103 17.58554001 20.01538086 16.88647461 C18.2101561 15.82581163 16.39788975 14.77815476 14.58398438 13.73242188 C0.51834288 5.55502865 0.51834288 5.55502865 -1 1 C-0.67 0.67 -0.34 0.34 0 0 Z " fill="#E0E2E5" transform="translate(287,326)"/>
<path d="M0 0 C1.39018439 3.72961603 0.58462446 5.79780159 -0.9140625 9.40234375 C-1.34307861 10.45156006 -1.77209473 11.50077637 -2.21411133 12.58178711 C-2.67970459 13.68917236 -3.14529785 14.79655762 -3.625 15.9375 C-4.55928447 18.20804924 -5.49288575 20.47887973 -6.42578125 22.75 C-6.87518066 23.83539062 -7.32458008 24.92078125 -7.78759766 26.0390625 C-9.19773937 29.48292048 -10.51694617 32.94914793 -11.8125 36.4375 C-13.85333229 41.81655082 -16.30516452 46.91994843 -19 52 C-20.08886719 50.23144531 -20.08886719 50.23144531 -21 48 C-19.88235786 45.08921772 -18.6862074 42.49953074 -17.25 39.75 C-13.3765021 31.99074872 -9.86534679 24.14410696 -6.5625 16.125 C-5.92586426 14.58344238 -5.92586426 14.58344238 -5.27636719 13.01074219 C-3.49534695 8.68253239 -1.73412397 4.34722078 0 0 Z " fill="#3A4554" transform="translate(1015,755)"/>
<path d="M0 0 C3.84321219 2.10493954 6.61456103 4.4534673 9.625 7.625 C14.11491053 12.2296902 18.79372351 16.21807176 23.84765625 20.1875 C26 22 26 22 27 24 C23.13080755 22.62951681 20.20381304 20.84813597 16.9375 18.375 C11.89174016 14.59926135 6.68589143 11.18762397 1.3359375 7.859375 C-1 6 -1 6 -1.9609375 3.890625 C-1.97382813 3.26671875 -1.98671875 2.6428125 -2 2 C-1.34 1.34 -0.68 0.68 0 0 Z " fill="#DEE0E4" transform="translate(312,298)"/>
<path d="M0 0 C5.72210596 1.86763181 11.37661751 3.85289032 17 6 C17 6.33 17 6.66 17 7 C14.12493579 7.02712325 11.25013092 7.04689851 8.375 7.0625 C7.16263672 7.07506836 7.16263672 7.07506836 5.92578125 7.08789062 C1.49658082 7.1058955 -2.63883424 6.89622662 -7 6 C-7 5.67 -7 5.34 -7 5 C-4.69 5 -2.38 5 0 5 C0 3.35 0 1.7 0 0 Z " fill="#CACED2" transform="translate(377,527)"/>
<path d="M0 0 C4.71782623 0.6050342 8.67571423 1.9296012 13.0625 3.75 C14.37727712 4.28985969 15.69238856 4.82890578 17.0078125 5.3671875 C17.9982959 5.77469238 17.9982959 5.77469238 19.00878906 6.19042969 C23.973458 8.20892432 28.99230232 10.09150139 34 12 C30.55411967 13.14862678 29.81672362 12.8389202 26.5 11.671875 C25.61723389 11.36773682 24.73446777 11.06359863 23.82495117 10.75024414 C22.89271729 10.42016357 21.9604834 10.09008301 21 9.75 C19.10103234 9.09541258 17.20129748 8.44304637 15.30078125 7.79296875 C14.3876416 7.48020996 13.47450195 7.16745117 12.53369141 6.84521484 C8.07691879 5.35847879 3.56093153 4.12154054 -1 3 C-0.67 2.01 -0.34 1.02 0 0 Z " fill="#C8CCD2" transform="translate(364,445)"/>
<path d="M0 0 C4.72084346 1.79751554 9.25206511 3.96137372 13.8125 6.125 C14.60076172 6.49753906 15.38902344 6.87007812 16.20117188 7.25390625 C18.13473705 8.16795524 20.06745388 9.08379842 22 10 C17.74265947 11.32463528 14.76041023 10.21124232 10.6875 8.75 C9.7294043 8.42322266 9.7294043 8.42322266 8.75195312 8.08984375 C4.41037077 6.58546567 0.20533109 4.84969285 -4 3 C-2.68 2.67 -1.36 2.34 0 2 C0 1.34 0 0.68 0 0 Z " fill="#D2D4D9" transform="translate(735,676)"/>
<path d="M0 0 C0.66 0.33 1.32 0.66 2 1 C-2.95 4.63 -7.9 8.26 -13 12 C-13.33 11.01 -13.66 10.02 -14 9 C-14.66 8.67 -15.32 8.34 -16 8 C-13.37964982 6.63610475 -10.75443001 5.28367827 -8.125 3.9375 C-7.37863281 3.54755859 -6.63226562 3.15761719 -5.86328125 2.75585938 C-4.79013672 2.20961914 -4.79013672 2.20961914 -3.6953125 1.65234375 C-3.03547363 1.31195068 -2.37563477 0.97155762 -1.69580078 0.62084961 C-1.13618652 0.41596924 -0.57657227 0.21108887 0 0 Z " fill="#C6CAD0" transform="translate(579,729)"/>
<path d="M0 0 C-0.3315629 3.0945871 -1.02882594 4.02804686 -3.3125 6.25 C-6 8 -6 8 -10 8 C-9.67 6.02 -9.34 4.04 -9 2 C-3.375 0 -3.375 0 0 0 Z " fill="#F2F2F3" transform="translate(565,738)"/>
<path d="M0 0 C4.29 0.33 8.58 0.66 13 1 C13 1.99 13 2.98 13 4 C11.68 4.33 10.36 4.66 9 5 C9 5.99 9 6.98 9 8 C4.66715661 5.71322155 3.28482735 4.10603418 0 0 Z " fill="#1C293C" transform="translate(350,530)"/>
<path d="M0 0 C0.66 0.99 1.32 1.98 2 3 C1.67 3.99 1.34 4.98 1 6 C1.66 6.33 2.32 6.66 3 7 C1.56705502 7.84114171 0.12845595 8.67265687 -1.3125 9.5 C-2.11300781 9.9640625 -2.91351562 10.428125 -3.73828125 10.90625 C-6 12 -6 12 -9 12 C-6.03 8.04 -3.06 4.08 0 0 Z " fill="#27374B" transform="translate(519,753)"/>
<path d="M0 0 C0.99 0 1.98 0 3 0 C2.649375 1.11375 2.29875 2.2275 1.9375 3.375 C0.62760669 6.80264476 0.62760669 6.80264476 2 9 C-1.96 10.98 -1.96 10.98 -6 13 C-4.58707905 8.1725201 -2.57025846 4.2837641 0 0 Z " fill="#1B2A3F" transform="translate(349,867)"/>
<path d="M0 0 C1.72990025 0.93614567 3.45888696 1.87397958 5.1875 2.8125 C6.15042969 3.33457031 7.11335938 3.85664063 8.10546875 4.39453125 C10.77398357 5.87463866 13.39374227 7.41337509 16 9 C11.90739982 10.36420006 9.52987341 8.7664515 5.8125 7.0625 C5.15830078 6.77181641 4.50410156 6.48113281 3.83007812 6.18164062 C2.21618656 5.46304657 0.60756345 4.7326412 -1 4 C-0.67 2.68 -0.34 1.36 0 0 Z " fill="#D8DADF" transform="translate(328,391)"/>
<path d="M0 0 C-2.43727292 1.62484861 -4.37286123 2.65689075 -7.0625 3.6875 C-8.10083984 4.09548828 -8.10083984 4.09548828 -9.16015625 4.51171875 C-11 5 -11 5 -13 4 C-13 3.34 -13 2.68 -13 2 C-14.32 1.67 -15.64 1.34 -17 1 C-11.33357449 -0.22517308 -5.76291482 -0.09228867 0 0 Z " fill="#E2E4E6" transform="translate(442,849)"/>
<path d="M0 0 C0 0.66 0 1.32 0 2 C-1.96875 3.5078125 -1.96875 3.5078125 -4.5 5.125 C-5.3353125 5.66382813 -6.170625 6.20265625 -7.03125 6.7578125 C-7.6809375 7.16773438 -8.330625 7.57765625 -9 8 C-9.66 6.68 -10.32 5.36 -11 4 C-9.07392696 1.53890667 -8.06050223 1.01358213 -4.9375 0.3125 C-2 0 -2 0 0 0 Z " fill="#D3D7DA" transform="translate(288,959)"/>
<path d="M0 0 C0.33 0 0.66 0 1 0 C1.32215416 4.6175429 0.92900057 7.33874929 -2 11 C-4.1875 11.8125 -4.1875 11.8125 -6 12 C-4.68315519 7.39104317 -2.84801255 3.85859765 0 0 Z " fill="#182639" transform="translate(994,803)"/>
<path d="M0 0 C1.12894876 0.93274109 2.25300876 1.87140122 3.375 2.8125 C4.00148438 3.33457031 4.62796875 3.85664063 5.2734375 4.39453125 C7 6 7 6 9 9 C5.09161134 9 3.88405893 7.49432124 1 5 C-0.32 5.99 -1.64 6.98 -3 8 C-1.125 1.125 -1.125 1.125 0 0 Z " fill="#253346" transform="translate(280,504)"/>
<path d="M0 0 C5.01693365 -0.30873438 8.69319924 0.73328273 13.375 2.5 C14.01566406 2.73847656 14.65632813 2.97695313 15.31640625 3.22265625 C16.88087465 3.80641312 18.44092137 4.40199724 20 5 C20 5.33 20 5.66 20 6 C13.44638413 5.47148259 7.11647732 4.53639635 1 2 C0.67 1.34 0.34 0.68 0 0 Z " fill="#CACDD2" transform="translate(371,484)"/>
<path d="M0 0 C-0.99 1.485 -0.99 1.485 -2 3 C-5.0390625 3.29296875 -5.0390625 3.29296875 -8.625 3.1875 C-9.81351562 3.16042969 -11.00203125 3.13335938 -12.2265625 3.10546875 C-13.59941406 3.05326172 -13.59941406 3.05326172 -15 3 C-15.33 2.01 -15.66 1.02 -16 0 C-13.89651926 -0.19504458 -11.79217415 -0.38078496 -9.6875 -0.5625 C-8.51574219 -0.66691406 -7.34398437 -0.77132812 -6.13671875 -0.87890625 C-3 -1 -3 -1 0 0 Z " fill="#364657" transform="translate(397,534)"/>
<path d="M0 0 C0.33 0.66 0.66 1.32 1 2 C-0.65 3.65 -2.3 5.3 -4 7 C-6.475 6.01 -6.475 6.01 -9 5 C-7.8125 3 -7.8125 3 -6 1 C-3.375 0.8125 -3.375 0.8125 -1 1 C-0.67 0.67 -0.34 0.34 0 0 Z " fill="#112032" transform="translate(959,862)"/>
<path d="M0 0 C5.94 0.99 5.94 0.99 12 2 C12.33 3.65 12.66 5.3 13 7 C8.1725201 5.58707905 4.2837641 3.57025846 0 1 C0 0.67 0 0.34 0 0 Z " fill="#2F3C4D" transform="translate(728,671)"/>
<path d="M0 0 C1.64767247 0.28109113 3.29313145 0.57518526 4.9375 0.875 C5.85402344 1.03742187 6.77054687 1.19984375 7.71484375 1.3671875 C8.46894531 1.57601562 9.22304688 1.78484375 10 2 C10.33 2.66 10.66 3.32 11 4 C5.55306686 4.09688221 0.36095333 4.12862175 -5 3 C-5 2.67 -5 2.34 -5 2 C-3.35 1.67 -1.7 1.34 0 1 C0 0.67 0 0.34 0 0 Z " fill="#EAECEE" transform="translate(383,530)"/>
<path d="M0 0 C2.67922713 3.28447423 4.45401627 6.73077743 6.25 10.5625 C6.79140625 11.69816406 7.3328125 12.83382813 7.890625 14.00390625 C9 17 9 17 8 20 C6.46276266 17.23796468 4.94815839 14.46414848 3.4375 11.6875 C2.78104492 10.50897461 2.78104492 10.50897461 2.11132812 9.30664062 C1.70205078 8.54931641 1.29277344 7.79199219 0.87109375 7.01171875 C0.48880615 6.31522217 0.10651855 5.61872559 -0.28735352 4.90112305 C-1 3 -1 3 0 0 Z " fill="#353F52" transform="translate(995,447)"/>
<path d="M0 0 C4.83842472 -0.56610454 7.04082085 1.09171728 10.8125 4 C11.78832031 4.7425 12.76414062 5.485 13.76953125 6.25 C14.50558594 6.8275 15.24164063 7.405 16 8 C15.01 8.495 15.01 8.495 14 9 C11.54961707 7.75717988 9.226675 6.47117661 6.875 5.0625 C6.21628906 4.67642578 5.55757813 4.29035156 4.87890625 3.89257812 C3.248387 2.93553422 1.62363816 1.96867185 0 1 C0 0.67 0 0.34 0 0 Z " fill="#AEB4BC" transform="translate(304,340)"/>
<path d="M0 0 C0.66 0.33 1.32 0.66 2 1 C0.1875 3.5 0.1875 3.5 -2 6 C-2.99 6 -3.98 6 -5 6 C-5 6.66 -5 7.32 -5 8 C-6.32 8.33 -7.64 8.66 -9 9 C-6.31941902 5.42589203 -3.57410797 2.68058098 0 0 Z M-11 9 C-10.34 9.33 -9.68 9.66 -9 10 C-10.98 10.99 -10.98 10.99 -13 12 C-12.34 11.01 -11.68 10.02 -11 9 Z " fill="#E1E4E7" transform="translate(791,743)"/>
<path d="M0 0 C-2 2 -2 2 -4.375 2.0625 C-5.24125 2.041875 -6.1075 2.02125 -7 2 C-7.59554687 2.17273438 -8.19109375 2.34546875 -8.8046875 2.5234375 C-11.58244246 3.12643769 -13.92926351 2.86472177 -16.75 2.5625 C-18.22726562 2.40974609 -18.22726562 2.40974609 -19.734375 2.25390625 C-20.48203125 2.17011719 -21.2296875 2.08632813 -22 2 C-22 1.67 -22 1.34 -22 1 C-14.63959083 0.20274098 -7.40239645 -0.12886183 0 0 Z " fill="#3E4B5B" transform="translate(814,675)"/>
<path d="M0 0 C3.53366794 -0.45842179 4.7506425 -0.18346888 7.67578125 1.96875 C8.98095703 3.22171875 8.98095703 3.22171875 10.3125 4.5 C11.19550781 5.3353125 12.07851563 6.170625 12.98828125 7.03125 C13.65214844 7.6809375 14.31601562 8.330625 15 9 C10.92969574 9 9.15556143 7.33514272 5.8125 5.0625 C4.72582031 4.33160156 3.63914062 3.60070312 2.51953125 2.84765625 C1.68808594 2.23792969 0.85664063 1.62820313 0 1 C0 0.67 0 0.34 0 0 Z " fill="#C6C9D0" transform="translate(324,312)"/>
<path d="M0 0 C5.52677733 -0.19392201 9.75614911 0.2520497 15 2 C15 2.66 15 3.32 15 4 C9.76119922 3.44854729 5.02649303 2.57077907 0 1 C0 0.67 0 0.34 0 0 Z " fill="#394657" transform="translate(555,1000)"/>
<path d="M0 0 C2.91517292 1.07401108 4.77810176 1.77810176 7 4 C6.67 4.33 6.34 4.66 6 5 C1.90210331 4.62056512 -0.53958935 4.30694043 -4 2 C-2.68 2 -1.36 2 0 2 C0 1.34 0 0.68 0 0 Z " fill="#E2E3E6" transform="translate(735,676)"/>
<path d="M0 0 C-0.33 1.32 -0.66 2.64 -1 4 C-2.65 4 -4.3 4 -6 4 C-6.66 2.68 -7.32 1.36 -8 0 C-4.71023192 -1.09658936 -3.28696233 -0.79953138 0 0 Z " fill="#EEEFF1" transform="translate(356,476)"/>
<path d="M0 0 C0.77772405 2.33317216 1.42415568 4.61435923 2 7 C1.01 7.495 1.01 7.495 0 8 C-1.32 7.01 -2.64 6.02 -4 5 C-2.25 1.125 -2.25 1.125 0 0 Z " fill="#28374A" transform="translate(416,304)"/>
<path d="M0 0 C0.66 0.33 1.32 0.66 2 1 C-1.49087093 5.0042343 -3.64951939 6.62671065 -9 7 C-6.25604436 4.05278838 -3.61662784 1.80831392 0 0 Z " fill="#273748" transform="translate(435,291)"/>
<path d="M0 0 C-0.33 0.99 -0.66 1.98 -1 3 C-4.5625 4.1875 -4.5625 4.1875 -8 5 C-8 4.34 -8 3.68 -8 3 C-8.66 2.67 -9.32 2.34 -10 2 C-3.375 0 -3.375 0 0 0 Z " fill="#203144" transform="translate(783,979)"/>
<path d="M0 0 C0.66 0.33 1.32 0.66 2 1 C-0.35468455 3.72647685 -2.5408417 4.98756342 -6 6 C-8.16015625 5.546875 -8.16015625 5.546875 -10 5 C-8.38007835 4.13624104 -6.75388139 3.28424146 -5.125 2.4375 C-4.22007812 1.96183594 -3.31515625 1.48617187 -2.3828125 0.99609375 C-1.20332031 0.50302734 -1.20332031 0.50302734 0 0 Z " fill="#394858" transform="translate(308,933)"/>
<path d="M0 0 C0.66 0.66 1.32 1.32 2 2 C1.625 3.875 1.625 3.875 1 6 C1 7.32 1 8.64 1 10 C0.01 10.66 -0.98 11.32 -2 12 C-1 3.42857143 -1 3.42857143 0 0 Z " fill="#C5C9CD" transform="translate(309,530)"/>
<path d="M0 0 C2.25 -0.3125 2.25 -0.3125 5 0 C7.3125 2.5 7.3125 2.5 9 5 C3.46153846 4.50769231 3.46153846 4.50769231 1.125 1.9375 C0.75375 1.298125 0.3825 0.65875 0 0 Z " fill="#EDEEF0" transform="translate(318,307)"/>
<path d="M0 0 C-0.33 1.65 -0.66 3.3 -1 5 C-0.34 5.33 0.32 5.66 1 6 C-0.98 6.33 -2.96 6.66 -5 7 C-4.625 4.0625 -4.625 4.0625 -4 1 C-2 0 -2 0 0 0 Z " fill="#DDDFE2" transform="translate(560,739)"/>
<path d="M0 0 C3.37503669 1.1858237 5.64722731 2.27573689 8 5 C6.35 5.33 4.7 5.66 3 6 C0 2.25 0 2.25 0 0 Z " fill="#303B4E" transform="translate(252,441)"/>
<path d="M0 0 C1.17539996 0.92652701 2.34010577 1.86663387 3.5 2.8125 C4.1496875 3.33457031 4.799375 3.85664063 5.46875 4.39453125 C7 6 7 6 7 9 C5.82460004 8.07347299 4.65989423 7.13336613 3.5 6.1875 C2.52546875 5.40439453 2.52546875 5.40439453 1.53125 4.60546875 C0 3 0 3 0 0 Z " fill="#1A2A3D" transform="translate(230,176)"/>
<path d="M0 0 C1.5625 1.75 1.5625 1.75 3 4 C2.6875 6.25 2.6875 6.25 2 8 C1.566875 7.505 1.13375 7.01 0.6875 6.5 C-0.99740483 4.66781808 -0.99740483 4.66781808 -4 5 C-2.68 3.35 -1.36 1.7 0 0 Z " fill="#232E42" transform="translate(962,851)"/>
<path d="M0 0 C1.32 0.33 2.64 0.66 4 1 C4 1.66 4 2.32 4 3 C-1.625 6 -1.625 6 -5 6 C-3.35 4.02 -1.7 2.04 0 0 Z " fill="#344153" transform="translate(515,759)"/>
<path d="M0 0 C1.32 1.65 2.64 3.3 4 5 C2.02 5.99 2.02 5.99 0 7 C-0.66 6.34 -1.32 5.68 -2 5 C-2 4.01 -2 3.02 -2 2 C-1.34 2 -0.68 2 0 2 C0 1.34 0 0.68 0 0 Z " fill="#202E43" transform="translate(961,391)"/>
<path d="M0 0 C0 0.66 0 1.32 0 2 C-6.0546875 2.9765625 -6.0546875 2.9765625 -8 3 C-8.66 2.34 -9.32 1.68 -10 1 C-6.61981469 -0.04005702 -3.5219721 -0.08004482 0 0 Z " fill="#1C2C40" transform="translate(772,983)"/>
<path d="M0 0 C0.66 0.33 1.32 0.66 2 1 C1.67 2.65 1.34 4.3 1 6 C-1.475 5.01 -1.475 5.01 -4 4 C-2.68 2.68 -1.36 1.36 0 0 Z " fill="#0E2136" transform="translate(961,855)"/>
<path d="M0 0 C1.33332095 2.6666419 0.67102033 4.16680303 0 7 C-1.32 7.33 -2.64 7.66 -4 8 C-3.40072174 4.64404172 -2.15377564 2.62198774 0 0 Z " fill="#132338" transform="translate(981,825)"/>
<path d="M0 0 C0.66 0.66 1.32 1.32 2 2 C-3.625 6 -3.625 6 -7 6 C-7 5.34 -7 4.68 -7 4 C-4.69 2.68 -2.38 1.36 0 0 Z " fill="#1E2D40" transform="translate(954,619)"/>
<path d="M0 0 C2.125 0.9375 2.125 0.9375 4 2 C4 2.99 4 3.98 4 5 C2.35 4.67 0.7 4.34 -1 4 C-1.33 3.01 -1.66 2.02 -2 1 C-1.34 0.67 -0.68 0.34 0 0 Z " fill="#EFF0F1" transform="translate(324,389)"/>
<path d="M0 0 C1.98 0.66 3.96 1.32 6 2 C6 2.99 6 3.98 6 5 C4.02 4.34 2.04 3.68 0 3 C0 2.01 0 1.02 0 0 Z " fill="#EBECEE" transform="translate(287,326)"/>
<path d="M0 0 C0 0.66 0 1.32 0 2 C-2.75078884 2.91692961 -4.35948913 3.10886083 -7.1875 3.0625 C-9.0746875 3.0315625 -9.0746875 3.0315625 -11 3 C-6.9903514 0.32690093 -4.82843714 0 0 0 Z " fill="#304051" transform="translate(540,248)"/>
<path d="M0 0 C0.99 0.66 1.98 1.32 3 2 C0.69 3.32 -1.62 4.64 -4 6 C-4.66 5.34 -5.32 4.68 -6 4 C-4.02 2.68 -2.04 1.36 0 0 Z " fill="#1D2F42" transform="translate(562,743)"/>
<path d="M0 0 C0.99 0.33 1.98 0.66 3 1 C3.625 3.875 3.625 3.875 4 7 C3.34 7.66 2.68 8.32 2 9 C1.34 6.03 0.68 3.06 0 0 Z " fill="#E1E3E4" transform="translate(316,722)"/>
<path d="M0 0 C0 0.99 0 1.98 0 3 C-1.98 3 -3.96 3 -6 3 C-6 2.01 -6 1.02 -6 0 C-3.50907189 -1.24546405 -2.58919267 -0.7767578 0 0 Z " fill="#EEF0F1" transform="translate(735,675)"/>
<path d="M0 0 C1.98 0 3.96 0 6 0 C5.690625 0.598125 5.38125 1.19625 5.0625 1.8125 C3.89790296 4.08956772 3.89790296 4.08956772 3 7 C0 3.375 0 3.375 0 0 Z " fill="#1B2739" transform="translate(256,446)"/>
<path d="M0 0 C2.31 1.98 4.62 3.96 7 6 C6.34 6.66 5.68 7.32 5 8 C2.5 5.6875 2.5 5.6875 0 3 C0 2.01 0 1.02 0 0 Z " fill="#E3E6E8" transform="translate(221,361)"/>
<path d="M0 0 C2.31 1.98 4.62 3.96 7 6 C6.34 6.66 5.68 7.32 5 8 C2.5 5.6875 2.5 5.6875 0 3 C0 2.01 0 1.02 0 0 Z " fill="#253244" transform="translate(248,196)"/>
<path d="M0 0 C0.66 0.66 1.32 1.32 2 2 C0.54618103 2.69699552 -0.91322953 3.38233866 -2.375 4.0625 C-3.18710937 4.44535156 -3.99921875 4.82820312 -4.8359375 5.22265625 C-5.55007813 5.47917969 -6.26421875 5.73570312 -7 6 C-7.66 5.67 -8.32 5.34 -9 5 C-6.03 3.35 -3.06 1.7 0 0 Z " fill="#E3E5E8" transform="translate(852,962)"/>
<path d="M0 0 C0.33 0.66 0.66 1.32 1 2 C0.34 1.67 -0.32 1.34 -1 1 C-0.67 0.67 -0.34 0.34 0 0 Z M-3 2 C-2.34 2.33 -1.68 2.66 -1 3 C-2.65 4.65 -4.3 6.3 -6 8 C-6 5 -6 5 -4.5 3.3125 C-3.7575 2.6628125 -3.7575 2.6628125 -3 2 Z " fill="#1D2C3D" transform="translate(918,900)"/>
<path d="M0 0 C2.5 1.3125 2.5 1.3125 5 3 C5 3.99 5 4.98 5 6 C3.35 5.67 1.7 5.34 0 5 C-0.5625 3.0625 -0.5625 3.0625 -1 1 C-0.67 0.67 -0.34 0.34 0 0 Z " fill="#E9EAEC" transform="translate(311,299)"/>
<path d="M0 0 C0 0.66 0 1.32 0 2 C1.32 2.33 2.64 2.66 4 3 C0.04 2.67 -3.92 2.34 -8 2 C-8 1.67 -8 1.34 -8 1 C-5.23735711 0.40267181 -2.83967231 0 0 0 Z " fill="#4B5766" transform="translate(613,1010)"/>
<path d="M0 0 C0.33 0.66 0.66 1.32 1 2 C0.25 4.0625 0.25 4.0625 -1 6 C-1.99 6.33 -2.98 6.66 -4 7 C-4 4 -4 4 -2 1.8125 C-1.34 1.214375 -0.68 0.61625 0 0 Z " fill="#253548" transform="translate(351,909)"/>
<path d="M0 0 C-1 3 -1 3 -4.0625 4.6875 C-5.031875 5.120625 -6.00125 5.55375 -7 6 C-7.33 5.34 -7.66 4.68 -8 4 C-2.25 0 -2.25 0 0 0 Z " fill="#EBECEE" transform="translate(736,791)"/>
<path d="M0 0 C0.99 0.33 1.98 0.66 3 1 C4.1875 4.5625 4.1875 4.5625 5 8 C4.34 8 3.68 8 3 8 C0 2.25 0 2.25 0 0 Z " fill="#273444" transform="translate(330,763)"/>
<path d="M0 0 C2.64 0 5.28 0 8 0 C7.01 0.66 6.02 1.32 5 2 C4.67 2.99 4.34 3.98 4 5 C3.34 4.67 2.68 4.34 2 4 C2 3.01 2 2.02 2 1 C1.34 0.67 0.68 0.34 0 0 Z " fill="#1F2E40" transform="translate(738,674)"/>
<path d="M0 0 C1.32 1.65 2.64 3.3 4 5 C3.34 6.32 2.68 7.64 2 9 C1.22678118 6.01758453 0.58803797 3.02419525 0 0 Z " fill="#2D3B4E" transform="translate(979,418)"/>
<path d="M0 0 C0.99 0.33 1.98 0.66 3 1 C0.14693203 3.32472205 -2.54074837 4.7508258 -6 6 C-6 5.34 -6 4.68 -6 4 C-4.68 3.67 -3.36 3.34 -2 3 C-2 2.34 -2 1.68 -2 1 C-1.34 0.67 -0.68 0.34 0 0 Z " fill="#ECEDEE" transform="translate(471,269)"/>
</svg>
